<mxfile host="app.diagrams.net" modified="2023-06-26T13:24:05.738Z" agent="Mozilla/5.0 (Windows NT 10.0; Win64; x64) AppleWebKit/537.36 (KHTML, like Gecko) Chrome/114.0.0.0 Safari/537.36" etag="e_J1S_2Q4lb0zrjikOPF" version="21.5.0" type="github">
  <diagram name="Page-1" id="aklOrfjd24qqs5W9E0Lq">
    <mxGraphModel dx="1899" dy="1012" grid="1" gridSize="10" guides="1" tooltips="1" connect="1" arrows="1" fold="1" page="1" pageScale="1" pageWidth="827" pageHeight="1169" math="0" shadow="0">
      <root>
        <mxCell id="0" />
        <mxCell id="1" parent="0" />
        <mxCell id="2Yd4HSy0jknkt4LKTj8f-24" style="edgeStyle=orthogonalEdgeStyle;rounded=0;orthogonalLoop=1;jettySize=auto;html=1;exitX=1;exitY=0.5;exitDx=0;exitDy=0;entryX=0.006;entryY=0.503;entryDx=0;entryDy=0;entryPerimeter=0;" edge="1" parent="1" source="2Yd4HSy0jknkt4LKTj8f-9" target="2Yd4HSy0jknkt4LKTj8f-22">
          <mxGeometry relative="1" as="geometry" />
        </mxCell>
        <mxCell id="2Yd4HSy0jknkt4LKTj8f-9" value="AQM Sensor" style="swimlane;movable=1;resizable=1;rotatable=1;deletable=1;editable=1;locked=0;connectable=1;" vertex="1" parent="1">
          <mxGeometry x="90" y="170" width="130" height="130" as="geometry" />
        </mxCell>
        <mxCell id="2Yd4HSy0jknkt4LKTj8f-10" value="" style="sketch=0;outlineConnect=0;fontColor=#232F3E;gradientColor=none;fillColor=#3F8624;strokeColor=none;dashed=0;verticalLabelPosition=bottom;verticalAlign=top;align=center;html=1;fontSize=12;fontStyle=0;aspect=fixed;pointerEvents=1;shape=mxgraph.aws4.iot_thing_humidity_sensor;movable=1;resizable=1;rotatable=1;deletable=1;editable=1;locked=0;connectable=1;" vertex="1" parent="2Yd4HSy0jknkt4LKTj8f-9">
          <mxGeometry x="15" y="50" width="50" height="50" as="geometry" />
        </mxCell>
        <mxCell id="2Yd4HSy0jknkt4LKTj8f-11" value="" style="sketch=0;outlineConnect=0;fontColor=#232F3E;gradientColor=none;fillColor=#3F8624;strokeColor=none;dashed=0;verticalLabelPosition=bottom;verticalAlign=top;align=center;html=1;fontSize=12;fontStyle=0;aspect=fixed;pointerEvents=1;shape=mxgraph.aws4.iot_thing_temperature_vibration_sensor;movable=1;resizable=1;rotatable=1;deletable=1;editable=1;locked=0;connectable=1;" vertex="1" parent="2Yd4HSy0jknkt4LKTj8f-9">
          <mxGeometry x="70" y="50" width="50" height="50" as="geometry" />
        </mxCell>
        <mxCell id="2Yd4HSy0jknkt4LKTj8f-37" style="edgeStyle=orthogonalEdgeStyle;rounded=0;orthogonalLoop=1;jettySize=auto;html=1;entryX=1;entryY=0.5;entryDx=0;entryDy=0;" edge="1" parent="1" source="2Yd4HSy0jknkt4LKTj8f-22" target="2Yd4HSy0jknkt4LKTj8f-9">
          <mxGeometry relative="1" as="geometry" />
        </mxCell>
        <mxCell id="2Yd4HSy0jknkt4LKTj8f-22" value="" style="image;points=[];aspect=fixed;html=1;align=center;shadow=0;dashed=0;image=img/lib/allied_telesis/wireless/Laptop_Wireless.svg;" vertex="1" parent="1">
          <mxGeometry x="390" y="190" width="325.96" height="268.23" as="geometry" />
        </mxCell>
        <mxCell id="2Yd4HSy0jknkt4LKTj8f-32" style="edgeStyle=orthogonalEdgeStyle;rounded=0;orthogonalLoop=1;jettySize=auto;html=1;exitX=1;exitY=0.5;exitDx=0;exitDy=0;entryX=0.006;entryY=0.503;entryDx=0;entryDy=0;entryPerimeter=0;" edge="1" parent="1" source="2Yd4HSy0jknkt4LKTj8f-29" target="2Yd4HSy0jknkt4LKTj8f-22">
          <mxGeometry relative="1" as="geometry" />
        </mxCell>
        <mxCell id="2Yd4HSy0jknkt4LKTj8f-29" value="Other IoT/WoT Sensor" style="swimlane;movable=1;resizable=1;rotatable=1;deletable=1;editable=1;locked=0;connectable=1;" vertex="1" parent="1">
          <mxGeometry x="90" y="370" width="130" height="130" as="geometry" />
        </mxCell>
        <mxCell id="2Yd4HSy0jknkt4LKTj8f-33" value="" style="sketch=0;outlineConnect=0;fontColor=#232F3E;gradientColor=none;fillColor=#3F8624;strokeColor=none;dashed=0;verticalLabelPosition=bottom;verticalAlign=top;align=center;html=1;fontSize=12;fontStyle=0;aspect=fixed;pointerEvents=1;shape=mxgraph.aws4.iot_thing_vibration_sensor;" vertex="1" parent="2Yd4HSy0jknkt4LKTj8f-29">
          <mxGeometry x="26" y="40" width="78" height="78" as="geometry" />
        </mxCell>
        <mxCell id="2Yd4HSy0jknkt4LKTj8f-34" value="IPFS Cluster Node" style="shape=datastore;whiteSpace=wrap;html=1;" vertex="1" parent="1">
          <mxGeometry x="430" y="460" width="80" height="110" as="geometry" />
        </mxCell>
        <mxCell id="2Yd4HSy0jknkt4LKTj8f-38" style="edgeStyle=orthogonalEdgeStyle;rounded=0;orthogonalLoop=1;jettySize=auto;html=1;entryX=1;entryY=0.5;entryDx=0;entryDy=0;exitX=0;exitY=0.505;exitDx=0;exitDy=0;exitPerimeter=0;" edge="1" parent="1" source="2Yd4HSy0jknkt4LKTj8f-22" target="2Yd4HSy0jknkt4LKTj8f-29">
          <mxGeometry relative="1" as="geometry">
            <mxPoint x="350" y="435" as="sourcePoint" />
            <mxPoint x="290" y="560" as="targetPoint" />
          </mxGeometry>
        </mxCell>
      </root>
    </mxGraphModel>
  </diagram>
</mxfile>
